/* XPM */
static char * twinkle_16x16_xpm[] = {
"16 16 98 2",
"  	c None",
". 	c #B2AC17",
"+ 	c #B5A918",
"@ 	c #F0EB23",
"# 	c #EDE622",
"$ 	c #F8F626",
"% 	c #938A0C",
"& 	c #93870A",
"* 	c #F6F728",
"= 	c #F8F932",
"- 	c #B8B110",
"; 	c #C4BF21",
"> 	c #F8F933",
", 	c #F8FA30",
"' 	c #F0EC1A",
") 	c #64590B",
"! 	c #B1A519",
"~ 	c #BDB121",
"{ 	c #C0B217",
"] 	c #C2B514",
"^ 	c #CDC41C",
"/ 	c #EDE621",
"( 	c #B8AF5D",
"_ 	c #BCB270",
": 	c #E9E11E",
"< 	c #F2EE18",
"[ 	c #E5E013",
"} 	c #DDD612",
"| 	c #DBD20F",
"1 	c #D6CF11",
"2 	c #675E0A",
"3 	c #A39814",
"4 	c #F6F22A",
"5 	c #F9FA31",
"6 	c #FAFA33",
"7 	c #F8F622",
"8 	c #7F82A1",
"9 	c #8E8DFE",
"0 	c #C2AAF9",
"a 	c #A292D2",
"b 	c #EEE91B",
"c 	c #FAFC16",
"d 	c #FCFC1E",
"e 	c #F1EE10",
"f 	c #827D06",
"g 	c #6E6406",
"h 	c #DBD316",
"i 	c #FBFA2D",
"j 	c #ECE21A",
"k 	c #415AFA",
"l 	c #9D97FE",
"m 	c #C6B1FA",
"n 	c #B5A0FA",
"o 	c #C4B94D",
"p 	c #F8FA1D",
"q 	c #D6CF12",
"r 	c #B4AE18",
"s 	c #F0E719",
"t 	c #3D51DA",
"u 	c #646EFF",
"v 	c #958AFE",
"w 	c #7674FD",
"x 	c #CAC144",
"y 	c #BFB625",
"z 	c #F6F620",
"A 	c #BCB73F",
"B 	c #4D5CD0",
"C 	c #4E58DE",
"D 	c #968E72",
"E 	c #F0EE1D",
"F 	c #A9A016",
"G 	c #A09609",
"H 	c #F5F418",
"I 	c #F6F722",
"J 	c #F2EC27",
"K 	c #EFE526",
"L 	c #F0F02E",
"M 	c #F2F332",
"N 	c #C8C318",
"O 	c #BEB30D",
"P 	c #F5F61E",
"Q 	c #F4F21F",
"R 	c #B2A911",
"S 	c #968D19",
"T 	c #E8E41D",
"U 	c #F4F532",
"V 	c #F5F326",
"W 	c #F2EA1A",
"X 	c #ECE71B",
"Y 	c #867A0B",
"Z 	c #625807",
"` 	c #D2CA16",
" .	c #F3F226",
"..	c #9F9411",
"+.	c #8E8009",
"@.	c #D3CA13",
"#.	c #A29A0D",
"$.	c #BFB312",
"                                ",
"                .               ",
"              + @               ",
"              # $ %             ",
"            & * = -             ",
"            ; > , '             ",
") ! ~ { ] ^ / ( _ : < [ } | 1 2 ",
"  3 4 5 6 7 8 9 0 a b c d e f   ",
"    g h i j k l m n o p q       ",
"        r s t u v w x y         ",
"          z A B C D E F         ",
"        G H I J K L M N         ",
"        O P Q R S T U V         ",
"        W X Y     Z `  ...      ",
"      +.@.            #.$.      ",
"                                "};
